<svg xmlns="http://www.w3.org/2000/svg" viewBox="0 0 262.74 143.25"><defs><style>.cls-1{fill:none;stroke:#e9c62c;stroke-linecap:round;stroke-miterlimit:10;stroke-width:4.8px;}.cls-2{fill:#fff;}.cls-3{fill:#e9c62c;}</style></defs><title>Asset 3</title><g id="Layer_2" data-name="Layer 2"><g id="Layer_1-2" data-name="Layer 1"><path class="cls-1" d="M2.4,19,21.32,2.4H241L260.34,19"/><path class="cls-1" d="M2.4,98.26l19.07,16.1H43.88"/><path class="cls-1" d="M260.34,98.26l-19.07,16.1H218.86"/><path class="cls-2" d="M39.15,45.63a19.57,19.57,0,0,1,4.94.52,8.57,8.57,0,0,1,3.34,1.64,11.81,11.81,0,0,1,3.27,4.84,18.4,18.4,0,0,1,1.19,6.74,19.86,19.86,0,0,1-1.17,7,11.66,11.66,0,0,1-3.29,4.91,8.63,8.63,0,0,1-3.31,1.63,19.77,19.77,0,0,1-5,.52H27.28V45.63Zm-.51,3.79H30.89V69.58h7.75q5.24,0,7.4-2.37t2.16-7.84q0-5.29-2.2-7.62T38.64,49.42Z"/><path class="cls-2" d="M56.1,73.44,67.87,45.63h3.85l12,27.81h-4L77,66.6H62.4l-2.75,6.84Zm7.81-10.39h11.6L69.7,48.82Z"/><path class="cls-2" d="M90.67,73.44V45.63h2.26l16.14,18.61c.36.42.75.93,1.17,1.52s.84,1.26,1.27,2c-.1-.89-.19-1.82-.24-2.8s-.08-2.32-.08-4V45.63h3.3V73.44h-2L95.91,54.11l-.37-.43A11.62,11.62,0,0,1,93.73,51q.12,1.28.18,2.7c0,1,.06,2.08.06,3.38V73.44Z"/><path class="cls-2" d="M143.93,49.42H129V69.58h15v-7l3.61,1v3.29c0,2.56-.35,4.29-1,5.21s-2,1.36-4,1.36H130.44q-2.94,0-4-1.38t-1.07-5.19V52.21q0-3.81,1.07-5.19c.7-.93,2-1.39,4-1.39h12.08c2,0,3.28.46,4,1.37s1,2.65,1,5.21v2.63l-3.61.87Z"/><path class="cls-2" d="M157,73.44V45.63h20.76v3.74H160.61v7.74h10.48v3.68H160.61v8.84h17.32v3.81Z"/><path class="cls-2" d="M186.49,73.44V45.63h17.38a4.33,4.33,0,0,1,3.5,1.28A6.4,6.4,0,0,1,208.44,51v6.21a6.36,6.36,0,0,1-1.07,4.09,4.32,4.32,0,0,1-3.5,1.27h-3.16l9.85,10.84h-5.34L196.45,62.6H190.1V73.44Zm16-24.2H190.1V59h12.36a2.23,2.23,0,0,0,1.84-.63,3.7,3.7,0,0,0,.49-2.21v-4a3.76,3.76,0,0,0-.5-2.23A2.19,2.19,0,0,0,202.46,49.24Z"/><path class="cls-2" d="M225,73.44V61.32L214.09,45.63h4.47L227,58l8.08-12.4h4.38L228.61,61.21V73.44Z"/><path class="cls-3" d="M97,100.76a11.1,11.1,0,0,1,2.74.28,4.86,4.86,0,0,1,1.85.91,6.61,6.61,0,0,1,1.81,2.68,10.26,10.26,0,0,1,.66,3.73,11,11,0,0,1-.65,3.88,6.39,6.39,0,0,1-1.82,2.71,4.77,4.77,0,0,1-1.83.91,11.17,11.17,0,0,1-2.76.29H90.42V100.76Zm-.28,2.1H92.41V114H96.7c1.94,0,3.3-.44,4.1-1.31s1.19-2.32,1.19-4.34a6,6,0,0,0-1.21-4.22A5.49,5.49,0,0,0,96.7,102.86Z"/><path class="cls-3" d="M106.36,116.15l6.51-15.39H115l6.62,15.39h-2.19l-1.52-3.79h-8.07l-1.52,3.79Zm4.32-5.75h6.42l-3.21-7.88Z"/><path class="cls-3" d="M125.49,116.15V100.76h1.25l8.93,10.29a10.3,10.3,0,0,1,.65.85c.23.33.46.69.7,1.09-.06-.5-.1-1-.13-1.55s0-1.29,0-2.24v-8.44h1.83v15.39h-1.12l-9.16-10.7-.2-.24a6.65,6.65,0,0,1-1-1.49c0,.46.08,1,.1,1.49s0,1.15,0,1.87v9.07Z"/><path class="cls-3" d="M155,102.86h-8.28V114H155v-3.86l2,.54v1.82a5.11,5.11,0,0,1-.57,2.88,2.66,2.66,0,0,1-2.2.76H147.5a2.68,2.68,0,0,1-2.22-.77,5,5,0,0,1-.58-2.87V104.4a5,5,0,0,1,.58-2.88,2.68,2.68,0,0,1,2.22-.76h6.68a2.63,2.63,0,0,1,2.2.76,5.09,5.09,0,0,1,.57,2.88v1.46l-2,.48Z"/><path class="cls-3" d="M162.19,116.15V100.76h11.49v2.07h-9.49v4.28H170v2h-5.8V114h9.58v2.11Z"/><path class="cls-3" d="M96.18,130H87.74v4.29h7.51a2.64,2.64,0,0,1,2.18.76,5,5,0,0,1,.59,2.87v1.73a5.07,5.07,0,0,1-.58,2.88,2.59,2.59,0,0,1-2.19.76h-7a2.65,2.65,0,0,1-2.21-.76,5,5,0,0,1-.59-2.88v-.42l1.85-.55v2.47h8.88v-4.63H88.73a2.62,2.62,0,0,1-2.2-.76,5,5,0,0,1-.58-2.88V131.5a5,5,0,0,1,.58-2.87,2.62,2.62,0,0,1,2.2-.77h6.35a2.71,2.71,0,0,1,2.2.75,4.33,4.33,0,0,1,.6,2.63v.32l-1.7.63Z"/><path class="cls-3" d="M108.67,130v13.29h-2V130h-5.45v-2.1h12.91V130Z"/><path class="cls-3" d="M119.49,127.86v13.25h8.69V127.86h2v11.75a5,5,0,0,1-.58,2.88,2.61,2.61,0,0,1-2.19.76h-7.08a2.65,2.65,0,0,1-2.21-.77,5,5,0,0,1-.59-2.87V127.86Z"/><path class="cls-3" d="M142.92,127.86a11,11,0,0,1,2.74.29,4.68,4.68,0,0,1,1.84.91,6.45,6.45,0,0,1,1.81,2.68,10.17,10.17,0,0,1,.66,3.72,10.78,10.78,0,0,1-.65,3.88,6.43,6.43,0,0,1-1.82,2.72,4.9,4.9,0,0,1-1.83.9,11.08,11.08,0,0,1-2.75.29h-6.57V127.86Zm-.28,2.1h-4.29v11.15h4.29c1.93,0,3.3-.44,4.09-1.31s1.2-2.32,1.2-4.34a6,6,0,0,0-1.22-4.21C145.9,130.39,144.54,130,142.64,130Z"/><path class="cls-3" d="M155,143.25V127.86h2v15.39Z"/><path class="cls-3" d="M163.05,131.5a5.15,5.15,0,0,1,.58-2.87,2.66,2.66,0,0,1,2.22-.77h8.25a2.6,2.6,0,0,1,2.19.77,5,5,0,0,1,.59,2.87v8.11a5,5,0,0,1-.59,2.88,2.59,2.59,0,0,1-2.19.76h-8.25a2.66,2.66,0,0,1-2.22-.77,5.12,5.12,0,0,1-.58-2.87Zm2,9.61h9.87V130H165Z"/></g></g></svg>