<svg xmlns="http://www.w3.org/2000/svg" viewBox="0 0 262.74 143.25"><defs><style>.cls-1{fill:none;stroke:#e9c62c;stroke-linecap:round;stroke-miterlimit:10;stroke-width:4.8px;}.cls-2{font-size:48.99px;fill:#fff;font-family:BankGothicBT-Light, BankGothic Lt BT;font-weight:300;}.cls-3{letter-spacing:-0.02em;}.cls-4{fill:#e9c62c;}</style></defs><title>Asset 2</title><g id="Layer_2" data-name="Layer 2"><g id="Layer_1-2" data-name="Layer 1"><path class="cls-1" d="M2.4,19,21.32,2.4H241L260.34,19"/><path class="cls-1" d="M2.4,98.26l19.07,16.1H43.88"/><path class="cls-1" d="M260.34,98.26l-19.07,16.1H218.86"/><text class="cls-2" transform="translate(21.69 73.44) scale(0.85 1.1)"><tspan class="cls-3">D</tspan><tspan x="38.72" y="0">ANCERY</tspan></text><path class="cls-4" d="M97,100.76a11.1,11.1,0,0,1,2.74.28,4.86,4.86,0,0,1,1.85.91,6.61,6.61,0,0,1,1.81,2.68,10.26,10.26,0,0,1,.66,3.73,11,11,0,0,1-.65,3.88,6.39,6.39,0,0,1-1.82,2.71,4.77,4.77,0,0,1-1.83.91,11.17,11.17,0,0,1-2.76.29H90.42V100.76Zm-.28,2.1H92.41V114H96.7c1.94,0,3.3-.44,4.1-1.31s1.19-2.32,1.19-4.34a6,6,0,0,0-1.21-4.22A5.49,5.49,0,0,0,96.7,102.86Z"/><path class="cls-4" d="M106.36,116.15l6.51-15.39H115l6.62,15.39h-2.19l-1.52-3.79h-8.07l-1.52,3.79Zm4.32-5.75h6.42l-3.21-7.88Z"/><path class="cls-4" d="M125.49,116.15V100.76h1.25l8.93,10.29a10.3,10.3,0,0,1,.65.85c.23.33.46.69.7,1.09-.06-.5-.1-1-.13-1.55s0-1.29,0-2.24v-8.44h1.83v15.39h-1.12l-9.16-10.7-.2-.24a6.65,6.65,0,0,1-1-1.49c0,.46.08,1,.1,1.49s0,1.15,0,1.87v9.07Z"/><path class="cls-4" d="M155,102.86h-8.28V114H155v-3.86l2,.54v1.82a5.11,5.11,0,0,1-.57,2.88,2.66,2.66,0,0,1-2.2.76H147.5a2.66,2.66,0,0,1-2.22-.77,5,5,0,0,1-.58-2.87V104.4a5,5,0,0,1,.58-2.88,2.66,2.66,0,0,1,2.22-.76h6.68a2.63,2.63,0,0,1,2.2.76,5.09,5.09,0,0,1,.57,2.88v1.46l-2,.48Z"/><path class="cls-4" d="M162.19,116.15V100.76h11.49v2.07h-9.49v4.28H170v2h-5.8V114h9.58v2.11Z"/><path class="cls-4" d="M96.18,130H87.74v4.29h7.51a2.64,2.64,0,0,1,2.18.76,5,5,0,0,1,.59,2.87v1.73a5.07,5.07,0,0,1-.58,2.88,2.59,2.59,0,0,1-2.19.76h-7a2.65,2.65,0,0,1-2.21-.76,5,5,0,0,1-.59-2.88v-.42l1.85-.55v2.47h8.88v-4.63H88.73a2.62,2.62,0,0,1-2.2-.76,5,5,0,0,1-.58-2.88V131.5a5,5,0,0,1,.58-2.87,2.62,2.62,0,0,1,2.2-.77h6.35a2.71,2.71,0,0,1,2.2.75,4.33,4.33,0,0,1,.6,2.63v.32l-1.7.63Z"/><path class="cls-4" d="M108.67,130v13.29h-2V130h-5.45v-2.1h12.91V130Z"/><path class="cls-4" d="M119.49,127.86v13.25h8.69V127.86h2v11.75a5,5,0,0,1-.58,2.88,2.61,2.61,0,0,1-2.19.76h-7.08a2.65,2.65,0,0,1-2.21-.77,5,5,0,0,1-.59-2.87V127.86Z"/><path class="cls-4" d="M142.92,127.86a11,11,0,0,1,2.74.29,4.68,4.68,0,0,1,1.84.91,6.45,6.45,0,0,1,1.81,2.68,10.17,10.17,0,0,1,.66,3.72,10.78,10.78,0,0,1-.65,3.88,6.43,6.43,0,0,1-1.82,2.72,4.9,4.9,0,0,1-1.83.9,11.08,11.08,0,0,1-2.75.29h-6.57V127.86Zm-.28,2.1h-4.29v11.15h4.29c1.93,0,3.3-.44,4.09-1.31s1.2-2.32,1.2-4.34a6,6,0,0,0-1.22-4.21C145.9,130.39,144.54,130,142.64,130Z"/><path class="cls-4" d="M155,143.25V127.86h2v15.39Z"/><path class="cls-4" d="M163.05,131.5a5.15,5.15,0,0,1,.58-2.87,2.66,2.66,0,0,1,2.22-.77h8.25a2.6,2.6,0,0,1,2.19.77,5,5,0,0,1,.59,2.87v8.11a5,5,0,0,1-.59,2.88,2.59,2.59,0,0,1-2.19.76h-8.25a2.66,2.66,0,0,1-2.22-.77,5.12,5.12,0,0,1-.58-2.87Zm2,9.61h9.87V130H165Z"/></g></g></svg>